<svg width="15" height="10" viewBox="0 0 15 10" fill="none" xmlns="http://www.w3.org/2000/svg">
<path d="M2.06897 6.72414C2.35463 6.72414 2.58621 6.95571 2.58621 7.24138V9.31034C2.58621 9.59601 2.35463 9.82759 2.06897 9.82759H0.517241C0.231577 9.82759 8.33095e-09 9.59601 0 9.31034V7.24138C3.33238e-08 6.95572 0.231577 6.72414 0.517241 6.72414H2.06897ZM6.2069 4.65517C6.49256 4.65517 6.72414 4.88675 6.72414 5.17241V9.31034C6.72414 9.59601 6.49256 9.82759 6.2069 9.82759H4.65517C4.36951 9.82759 4.13793 9.59601 4.13793 9.31034V5.17241C4.13793 4.88675 4.36951 4.65517 4.65517 4.65517H6.2069ZM10.3448 2.58621C10.6305 2.58621 10.8621 2.81778 10.8621 3.10345V9.31034C10.8621 9.59601 10.6305 9.82759 10.3448 9.82759H8.7931C8.50744 9.82759 8.27586 9.59601 8.27586 9.31034V3.10345C8.27586 2.81778 8.50744 2.58621 8.7931 2.58621H10.3448ZM14.4828 0C14.7684 0 15 0.231577 15 0.517241V9.31034C15 9.59601 14.7684 9.82759 14.4828 9.82759H12.931C12.6454 9.82759 12.4138 9.59601 12.4138 9.31034V0.517241C12.4138 0.231577 12.6454 4.16544e-09 12.931 0H14.4828Z" fill="white"/>
</svg>
