<svg width="22" height="22" viewBox="0 0 22 22" fill="none" xmlns="http://www.w3.org/2000/svg">
<path d="M21.7916 12.7311L21.4506 11.9067C21.2043 11.3206 21.2043 10.6611 21.4506 10.0933L21.7916 9.26894C22.2463 8.20649 21.8295 6.96087 20.8444 6.37469L20.6549 6.26478L19.935 5.84346C19.4803 5.56869 19.1393 5.1657 18.9688 4.67111C18.9309 4.59784 18.912 4.52456 18.893 4.43297L18.6278 3.42548C18.3436 2.36303 17.3585 1.63031 16.2597 1.70358L14.9715 1.79517C14.4031 1.83181 13.8537 1.64863 13.399 1.30058L12.3949 0.494588C11.9971 0.164863 11.4856 0 10.993 0C10.5005 0 9.98895 0.164863 9.57216 0.494588L8.56808 1.30058C8.11341 1.66694 7.564 1.83181 6.99566 1.79517L5.70741 1.70358C4.6086 1.63031 3.62347 2.34471 3.3393 3.42548L3.07407 4.43297C2.92251 5.01915 2.54361 5.51374 2.0321 5.82515L1.12274 6.35637C0.137611 6.94255 -0.260232 8.18818 0.1755 9.25062L0.516508 10.0749C0.762792 10.6611 0.762792 11.3206 0.516508 11.8884L0.194445 12.7311C-0.260232 13.8118 0.13761 15.0391 1.14169 15.6253L2.05104 16.1749C2.56256 16.4863 2.94145 16.9809 3.09301 17.567L3.35824 18.5745C3.64241 19.637 4.62755 20.3697 5.72635 20.2964L7.0146 20.2048C7.58295 20.1682 8.15129 20.3514 8.58703 20.6994L9.59111 21.5054C10.4247 22.1649 11.5993 22.1649 12.4328 21.5054L12.9254 21.1024C13.5695 20.5895 14.2705 20.5162 15.1798 20.7544L19.0635 21.9817C19.0825 21.9817 19.1204 21.9817 19.1204 21.945V17.8968C19.1204 17.2373 19.4614 16.6145 20.0108 16.2298L20.617 15.8085C20.6928 15.7535 20.7875 15.6803 20.8633 15.6253C20.8823 15.607 20.9012 15.5887 20.9391 15.5887L21.0528 15.5154C21.659 15.0758 22 14.3614 22 13.647C21.9621 13.3172 21.9053 13.0241 21.7916 12.7311ZM13.1527 15.3689C13.0012 15.8085 12.6981 16.1932 12.3192 16.4496C11.9403 16.7061 11.4856 16.8526 10.993 16.8526C10.0079 16.8526 9.15537 16.2481 8.83331 15.3689L5.74529 6.70441H8.64386L10.9741 13.995L13.3232 6.70441H16.2218L13.1527 15.3689Z" fill="#7C60FD"/>
</svg>
