<svg width="12" height="10" viewBox="0 0 12 10" fill="none" xmlns="http://www.w3.org/2000/svg">
<path d="M9 8C9.26522 8 9.5195 8.10543 9.70703 8.29297C9.89457 8.4805 10 8.73478 10 9C10 9.26522 9.89457 9.5195 9.70703 9.70703C9.5195 9.89457 9.26522 10 9 10H3C2.73478 10 2.48051 9.89457 2.29297 9.70703C2.10543 9.5195 2 9.26522 2 9C2 8.73478 2.10543 8.4805 2.29297 8.29297C2.48051 8.10543 2.73478 8 3 8H9ZM11 4C11.2652 4 11.5195 4.10543 11.707 4.29297C11.8946 4.4805 12 4.73478 12 5C12 5.26522 11.8946 5.5195 11.707 5.70703C11.5195 5.89457 11.2652 6 11 6H1C0.734784 6 0.480505 5.89457 0.292969 5.70703C0.105432 5.5195 0 5.26522 0 5C0 4.73478 0.105432 4.4805 0.292969 4.29297C0.480505 4.10543 0.734784 4 1 4H11ZM9 0C9.26522 0 9.5195 0.105432 9.70703 0.292969C9.89457 0.480505 10 0.734784 10 1C10 1.26522 9.89457 1.51949 9.70703 1.70703C9.5195 1.89457 9.26522 2 9 2H3C2.73478 2 2.48051 1.89457 2.29297 1.70703C2.10543 1.51949 2 1.26522 2 1C2 0.734784 2.10543 0.480505 2.29297 0.292969C2.48051 0.105432 2.73478 0 3 0H9Z" fill="#ADB2B8"/>
</svg>
