<svg width="12" height="12" viewBox="0 0 12 12" fill="none" xmlns="http://www.w3.org/2000/svg">
<path d="M6.62305 1.91895H11.0811V3.85742H9.37109C8.79839 5.51682 8.04664 6.91056 7.10547 8.07227C8.19646 8.93488 9.52155 9.57823 11.1006 9.96387L11.5215 10.0674L11.2109 10.3926C10.9104 10.708 10.4884 11.3763 10.2822 11.7891L10.1953 11.9629L10.0186 11.9131C8.25521 11.4123 6.81327 10.6317 5.62793 9.58105C4.42241 10.5986 2.99328 11.3681 1.33008 11.9336L1.13574 12L1.0498 11.7998C0.903418 11.4589 0.490792 10.7719 0.232422 10.4326L0 10.1279L0.352539 10.0273C1.89846 9.58547 3.19744 8.96124 4.27051 8.12207C3.34675 6.92296 2.63199 5.4955 2.06348 3.85742H0.379883V1.91895H4.77148V0H6.62305V1.91895ZM1.02441 11.2324C1.12253 11.4071 1.20769 11.5689 1.26074 11.6924C1.20767 11.5689 1.12253 11.4071 1.02441 11.2324ZM9.69824 11.5537C9.82287 11.5931 9.94902 11.6316 10.0771 11.668C9.94902 11.6316 9.82286 11.5931 9.69824 11.5537ZM9.40137 11.4561C9.48105 11.4833 9.56142 11.5101 9.64258 11.5361C9.56142 11.5101 9.48105 11.4834 9.40137 11.4561ZM1.83301 11.4854C1.84736 11.4799 1.86166 11.4743 1.87598 11.4688C1.86166 11.4743 1.84736 11.4799 1.83301 11.4854ZM9.04199 11.3262C9.10178 11.3487 9.16201 11.3708 9.22266 11.3926C9.16201 11.3708 9.10177 11.3487 9.04199 11.3262ZM8.66211 11.1758C8.73827 11.2075 8.81496 11.2391 8.89258 11.2695C8.81496 11.2391 8.73826 11.2075 8.66211 11.1758ZM2.41504 11.248C2.43394 11.2399 2.45285 11.2318 2.47168 11.2236C2.45285 11.2318 2.43394 11.2399 2.41504 11.248ZM7.94922 10.8486C8.15384 10.9513 8.36378 11.0495 8.58008 11.1416C8.36378 11.0495 8.15383 10.9513 7.94922 10.8486ZM2.94727 11.0068C2.96394 10.9988 2.98045 10.9905 2.99707 10.9824C2.98045 10.9905 2.96394 10.9988 2.94727 11.0068ZM10.6338 10.7402C10.7026 10.6406 10.7729 10.5455 10.8408 10.458C10.7729 10.5455 10.7026 10.6406 10.6338 10.7402ZM7.59277 10.6621C7.68052 10.7104 7.7694 10.7575 7.85938 10.8037C7.7694 10.7575 7.68052 10.7104 7.59277 10.6621ZM3.46973 10.7412C3.50689 10.7213 3.54322 10.6999 3.58008 10.6797C3.54322 10.6999 3.5069 10.7213 3.46973 10.7412ZM6.68555 10.1006C6.86441 10.225 7.04877 10.3438 7.23828 10.458C7.04878 10.3438 6.8644 10.225 6.68555 10.1006ZM4.47168 10.1396C4.49708 10.1227 4.52262 10.106 4.54785 10.0889C4.52262 10.106 4.49708 10.1227 4.47168 10.1396ZM6.39941 9.89355C6.4781 9.95256 6.55785 10.0105 6.63867 10.0674C6.55785 10.0105 6.4781 9.95256 6.39941 9.89355ZM6.1377 9.68945C6.214 9.7508 6.29074 9.81184 6.36914 9.87109C6.29074 9.81184 6.214 9.7508 6.1377 9.68945ZM4.97461 9.78418C4.99119 9.77177 5.00791 9.75957 5.02441 9.74707C5.00791 9.75957 4.99119 9.77177 4.97461 9.78418ZM5.52246 9.34766C5.55867 9.3168 5.59507 9.28619 5.63086 9.25488C5.69114 9.31046 5.75275 9.36581 5.81445 9.41992C5.9026 9.49722 5.99288 9.57219 6.08398 9.64648C5.92857 9.51973 5.77774 9.3884 5.63086 9.25293C5.59475 9.28453 5.559 9.31653 5.52246 9.34766ZM4.45801 7.9707C4.50777 8.03512 4.55839 8.09907 4.60938 8.16211H4.61035C4.55 8.08749 4.49028 8.0121 4.43164 7.93555C4.44055 7.94718 4.44906 7.95912 4.45801 7.9707ZM6.76074 8.10742H6.76172C6.81428 8.0456 6.86656 7.98315 6.91797 7.91992C6.91871 7.91902 6.91919 7.9179 6.91992 7.91699C6.86763 7.98135 6.81423 8.04452 6.76074 8.10742ZM4.08789 7.46094C4.11059 7.49395 4.13328 7.52688 4.15625 7.55957C4.13328 7.52688 4.11059 7.49395 4.08789 7.46094ZM7.22168 7.52832C7.24847 7.49226 7.27433 7.45544 7.30078 7.41895C7.27433 7.45544 7.24847 7.49226 7.22168 7.52832ZM3.80859 7.03711C3.82816 7.06829 3.84838 7.09897 3.86816 7.12988C3.84838 7.09897 3.82816 7.06829 3.80859 7.03711ZM7.52637 7.0957C7.54518 7.06783 7.56535 7.04081 7.58398 7.0127C7.56535 7.04081 7.54518 7.06782 7.52637 7.0957ZM4.06055 3.85742C4.47885 4.91631 5.02589 5.87086 5.70996 6.70215C6.35618 5.89796 6.88275 4.95574 7.2959 3.85742H4.06055ZM3.49609 6.50977C3.51782 6.54833 3.5395 6.58681 3.56152 6.625C3.5395 6.58681 3.51782 6.54833 3.49609 6.50977ZM7.8457 6.59668C7.86128 6.57098 7.87714 6.54541 7.89258 6.51953C7.87714 6.54541 7.86129 6.57098 7.8457 6.59668ZM3.26074 6.07617C3.27335 6.10052 3.28709 6.12423 3.2998 6.14844C3.28203 6.11459 3.26366 6.08099 3.24609 6.04688L3.26074 6.07617ZM8.39453 5.59668C8.41549 5.55423 8.43639 5.51164 8.45703 5.46875C8.43639 5.51164 8.41549 5.55423 8.39453 5.59668ZM2.97559 5.49316C2.99047 5.52518 3.00546 5.55707 3.02051 5.58887C3.00547 5.55707 2.99047 5.52518 2.97559 5.49316ZM8.65234 5.04688C8.66371 5.0212 8.67527 4.99555 8.68652 4.96973C8.67527 4.99556 8.66371 5.0212 8.65234 5.04688ZM2.49414 4.34961C2.51721 4.41009 2.53996 4.47045 2.56348 4.53027C2.53996 4.47045 2.51721 4.41009 2.49414 4.34961ZM8.89453 4.46777C8.90783 4.43412 8.92046 4.40011 8.93359 4.36621C8.92046 4.40011 8.90783 4.43411 8.89453 4.46777ZM2.26855 3.7334C2.28289 3.77495 2.29797 3.81616 2.3125 3.85742C2.28304 3.77374 2.25428 3.68935 2.22559 3.60449H2.22461C2.23915 3.64749 2.25382 3.6907 2.26855 3.7334ZM9.20801 3.60449C9.1936 3.64758 9.17968 3.69068 9.16504 3.7334C9.17463 3.70541 9.18484 3.67756 9.19434 3.64941C9.1993 3.63469 9.20307 3.61926 9.20801 3.60449ZM5.00391 0.25293V2.17188H5.00488V0.25293H5.00391ZM7.34375 10.5205C7.42167 10.5662 7.50034 10.6113 7.58008 10.6553C7.50034 10.6113 7.42167 10.5662 7.34375 10.5205ZM6.15332 6.51465C6.22231 6.41983 6.29041 6.32382 6.35645 6.22559C6.29041 6.32382 6.22231 6.41984 6.15332 6.51465ZM7.02246 5.07715C7.08082 4.96005 7.13722 4.84085 7.19238 4.71973C7.13722 4.84085 7.08081 4.96005 7.02246 5.07715ZM7.39746 4.24414C7.44759 4.12018 7.49587 3.99415 7.54297 3.86621C7.49587 3.99415 7.44759 4.12018 7.39746 4.24414Z" fill="white"/>
</svg>
