<svg width="17" height="17" viewBox="0 0 17 17" fill="none" xmlns="http://www.w3.org/2000/svg">
<path d="M8.49984 9.9165C8.32472 9.9165 8.15354 9.96843 8.00793 10.0657C7.86232 10.163 7.74884 10.3013 7.68182 10.4631C7.61481 10.6249 7.59727 10.8029 7.63144 10.9747C7.6656 11.1464 7.74993 11.3042 7.87376 11.428C7.99758 11.5518 8.15535 11.6362 8.3271 11.6703C8.49886 11.7045 8.67689 11.687 8.83868 11.6199C9.00046 11.5529 9.13875 11.4394 9.23604 11.2938C9.33333 11.1482 9.38526 10.977 9.38526 10.8019C9.38526 10.5671 9.29197 10.3419 9.12593 10.1758C8.95988 10.0098 8.73467 9.9165 8.49984 9.9165ZM8.49984 8.854C8.6877 8.854 8.86787 8.77938 9.00071 8.64654C9.13355 8.5137 9.20817 8.33353 9.20817 8.14567V6.02067C9.20817 5.83281 9.13355 5.65264 9.00071 5.5198C8.86787 5.38697 8.6877 5.31234 8.49984 5.31234C8.31198 5.31234 8.13181 5.38697 7.99897 5.5198C7.86614 5.65264 7.79151 5.83281 7.79151 6.02067V8.14567C7.79151 8.33353 7.86614 8.5137 7.99897 8.64654C8.13181 8.77938 8.31198 8.854 8.49984 8.854ZM8.49984 1.4165C7.09889 1.4165 5.7294 1.83193 4.56455 2.61026C3.3997 3.38859 2.49181 4.49485 1.95569 5.78916C1.41957 7.08347 1.2793 8.50769 1.55261 9.88173C1.82592 11.2558 2.50055 12.5179 3.49117 13.5085C4.48179 14.4991 5.74392 15.1738 7.11795 15.4471C8.49198 15.7204 9.91621 15.5801 11.2105 15.044C12.5048 14.5079 13.6111 13.6 14.3894 12.4351C15.1677 11.2703 15.5832 9.90079 15.5832 8.49984C15.5811 6.62186 14.8341 4.8214 13.5062 3.49347C12.1783 2.16554 10.3778 1.41859 8.49984 1.4165ZM8.49984 14.1665C7.37908 14.1665 6.28349 13.8342 5.35161 13.2115C4.41973 12.5888 3.69342 11.7038 3.26452 10.6684C2.83563 9.63293 2.72341 8.49355 2.94206 7.39433C3.16071 6.2951 3.7004 5.2854 4.4929 4.4929C5.2854 3.7004 6.2951 3.1607 7.39433 2.94205C8.49356 2.7234 9.63293 2.83562 10.6684 3.26452C11.7038 3.69342 12.5888 4.41973 13.2115 5.35161C13.8342 6.28348 14.1665 7.37908 14.1665 8.49984C14.1648 10.0022 13.5672 11.4425 12.5049 12.5049C11.4425 13.5672 10.0022 14.1648 8.49984 14.1665Z" fill="#8C8C8C"/>
</svg>
