<svg width="18" height="18" viewBox="0 0 18 18" fill="none" xmlns="http://www.w3.org/2000/svg">
<path d="M11.7002 0C13.1906 0.00194828 14.3987 1.34394 14.4004 3V4H15.75C16.9922 4.00128 17.9988 5.11981 18 6.5V15.5C17.9988 16.8802 16.9922 17.9987 15.75 18H2.7002C1.20968 17.9982 0.00164799 16.6561 0 15V2.5C0.00115353 1.11981 1.00783 0.0012817 2.25 0H11.7002ZM2.25 1C1.50441 1 0.900391 1.67157 0.900391 2.5C0.900391 3.32843 1.50441 4 2.25 4H13.5V3C13.4987 1.89607 12.6937 1.00152 11.7002 1H2.25Z" fill="#505966"/>
</svg>
