<svg width="13" height="9" viewBox="0 0 13 9" fill="none" xmlns="http://www.w3.org/2000/svg">
<path d="M6.4873 5.96875C7.35209 5.96875 8.12648 6.34544 8.64453 6.93848L6.52246 9L4.36035 6.90527C4.87796 6.33149 5.63893 5.96888 6.4873 5.96875ZM6.48828 2.98438C8.20204 2.98446 9.74556 3.69166 10.8242 4.82129L9.73535 5.87891C8.93643 5.01793 7.77743 4.47665 6.48828 4.47656C5.21437 4.47656 4.06744 5.0054 3.26953 5.84863L2.17969 4.79297C3.25704 3.68003 4.78899 2.98438 6.48828 2.98438ZM6.4873 0C9.05031 0 11.363 1.03959 13 2.70703L11.9121 3.76367C10.5541 2.3652 8.62571 1.49219 6.4873 1.49219C4.36275 1.49226 2.44631 2.3546 1.08984 3.7373L0 2.68164C1.63549 1.02901 3.93736 6.95199e-05 6.4873 0Z" fill="white"/>
</svg>
